<?xml version="1.0" encoding="UTF-8" standalone="no"?>
<!-- Created with Inkscape (http://www.inkscape.org/) -->

<svg
   width="102.21509mm"
   height="95.078293mm"
   viewBox="0 0 102.21509 95.078293"
   version="1.1"
   id="svg1"
   xml:space="preserve"
   inkscape:version="1.4.3 (0d15f75, 2025-12-25)"
   sodipodi:docname="logo.svg"
   xmlns:inkscape="http://www.inkscape.org/namespaces/inkscape"
   xmlns:sodipodi="http://sodipodi.sourceforge.net/DTD/sodipodi-0.dtd"
   xmlns="http://www.w3.org/2000/svg"
   xmlns:svg="http://www.w3.org/2000/svg"><sodipodi:namedview
     id="namedview1"
     pagecolor="#505050"
     bordercolor="#eeeeee"
     borderopacity="1"
     inkscape:showpageshadow="0"
     inkscape:pageopacity="0"
     inkscape:pagecheckerboard="0"
     inkscape:deskcolor="#505050"
     inkscape:document-units="mm"
     inkscape:zoom="0.27094021"
     inkscape:cx="-725.25226"
     inkscape:cy="452.12927"
     inkscape:window-width="1920"
     inkscape:window-height="1111"
     inkscape:window-x="-9"
     inkscape:window-y="-9"
     inkscape:window-maximized="1"
     inkscape:current-layer="layer1" /><defs
     id="defs1"><filter
       inkscape:collect="always"
       style="color-interpolation-filters:sRGB"
       id="filter1"
       x="-0.23754163"
       y="-0.20808345"
       width="1.4750833"
       height="1.4161669"><feGaussianBlur
         inkscape:collect="always"
         stdDeviation="3.1506446"
         id="feGaussianBlur1" /></filter></defs><g
     inkscape:label="Layer 1"
     inkscape:groupmode="layer"
     id="layer1"
     transform="translate(-29.330144,-10.987815)"><ellipse
       style="fill:#ffffff;fill-opacity:1;stroke-width:0.497842;stroke-opacity:0.775726"
       id="path3"
       cx="92.501823"
       cy="59.2244"
       rx="47.539146"
       ry="48.105648"
       transform="matrix(1,0,-0.1530153,0.98822382,0,0)" /><ellipse
       style="mix-blend-mode:normal;fill:#435fa3;fill-opacity:1;stroke-width:0.177036;stroke-opacity:0.775726;filter:url(#filter1)"
       id="ellipse1"
       cx="279.72809"
       cy="197.84097"
       rx="15.916256"
       ry="18.169506"
       transform="matrix(0.97508944,0.22181206,-0.98642396,0.16421869,0,0)" /><g
       id="g3"
       transform="matrix(0.31174943,0,0,0.31174943,24.450143,-75.911699)"><path
         style="fill:#2b7afe;fill-opacity:1"
         d="m 207.86478,551.61162 c -3.18859,-0.81004 -5.38129,-2.38417 -7.31696,-5.25278 -1.78751,-2.64906 -2.91155,-4.97285 -5.57953,-11.5349 -5.71692,-14.06115 -9.64176,-21.68733 -14.55162,-28.27463 -1.93087,-2.59055 -7.611,-8.38206 -10.54558,-10.75237 -1.75559,-1.41801 -1.99415,-1.53535 -2.49086,-1.22515 -1.15087,0.71873 -6.77057,3.40775 -8.79677,4.20924 -3.63879,1.43938 -8.8859,2.88814 -13.25732,3.66044 -3.86775,0.68331 -4.73595,0.74263 -10.81976,0.73919 -6.71813,-0.004 -8.58686,-0.1927 -13.22917,-1.33737 -3.31662,-0.81779 -8.39578,-2.63946 -13.67346,-4.90407 -3.4329,-1.47304 -5.81836,-2.34773 -6.40271,-2.34773 -1.771967,0 -6.539897,1.08508 -13.854127,3.15289 -14.36572,4.06136 -19.34762,4.70544 -22.7945,2.94698 -1.22843,-0.6267 -1.7159,-1.27298 -2.12111,-2.81214 -0.7873,-2.99052 2.69588,-9.44474 7.91423,-14.66478 4.85009,-4.85166 12.09086,-9.4304 19.07956,-12.06506 l 2.01455,-0.75946 -0.59892,-0.94875 c -1.99087,-3.15373 -1.84732,-5.9951 0.38455,-7.61185 1.71118,-1.23958 4.01508,-1.73726 7.22768,-1.56132 4.672937,0.25593 7.537367,1.47537 15.402767,6.55724 5.38245,3.47763 8.28418,4.99844 11.91941,6.24703 2.65047,0.91035 3.15854,0.99926 5.68854,0.99539 2.71558,-0.004 3.25914,-0.11018 6.27914,-1.22475 l 1.38436,-0.51092 -1.29939,-1.56137 c -0.71467,-0.85876 -1.66461,-2.09221 -2.11099,-2.74099 -1.06578,-1.54906 -3.02147,-5.49465 -3.57423,-7.21098 l -0.43845,-1.36138 -1.77386,-0.32593 c -2.61354,-0.4802 -7.60145,-2.16733 -10.13729,-3.42885 -5.31456,-2.64389 -11.13521,-7.4591 -14.66878,-12.13494 -3.40828,-4.51006 -6.165877,-11.10084 -6.818337,-16.29613 l -0.31714,-2.52526 -1.93988,-0.92966 c -3.67967,-1.76343 -6.8146,-5.6521 -7.12015,-8.83207 -0.17165,-1.78639 0.44864,-2.41409 2.38448,-2.41297 1.57542,9.1e-4 10.017257,1.37311 11.088107,1.80234 0.50227,0.20133 0.84784,0.66959 1.20935,1.63871 0.43849,1.17546 0.55216,1.30139 0.85038,0.94206 0.26855,-0.32358 0.28025,-0.66202 0.0532,-1.53945 -0.36511,-1.41107 0.0756,-2.12044 1.96795,-3.16781 1.8895,-1.04577 5.82563,-2.58707 6.60681,-2.58707 0.36941,0 0.97793,0.30627 1.35227,0.68061 0.60197,0.60198 0.667,0.84467 0.56283,2.10074 -0.0765,0.92225 -0.35165,1.77356 -0.7849,2.42825 -0.36693,0.55446 -0.67654,1.10931 -0.68803,1.23299 -0.0115,0.12369 -0.84706,0.83806 -1.85681,1.5875 -2.24965,1.66969 -5.34609,4.15341 -5.34609,4.28823 0,0.18619 2.30361,-1.45491 2.6737,-1.90475 0.20296,-0.24669 1.26198,-1.10503 2.35339,-1.90742 1.0914,-0.80239 2.25678,-1.74584 2.58972,-2.09656 0.35063,-0.36936 0.77389,-0.57299 1.00593,-0.48395 0.23306,0.0894 0.33123,0.0415 0.23474,-0.11462 -0.2169,-0.35096 5.32222,-2.99859 5.84981,-2.79613 0.22079,0.0847 0.33481,0.0462 0.25336,-0.0856 -0.19854,-0.32124 2.39887,-1.16831 2.82664,-0.92182 0.18517,0.1067 0.24307,0.0912 0.12868,-0.0344 -0.25299,-0.27776 1.23083,-0.74354 4.57385,-1.43578 2.19103,-0.45369 2.9044,-0.4878 5.55625,-0.26573 3.52619,0.29528 4.85026,0.65413 7.48214,2.02779 2.52229,1.31647 5.47852,4.26286 7.18335,7.15943 1.38383,2.35119 1.83795,2.8777 0.91283,1.05834 -1.81621,-3.57179 -5.26544,-7.13427 -8.47463,-8.75292 -2.08309,-1.05067 -4.75248,-1.72718 -7.10392,-1.80038 -1.03747,-0.0323 -0.69568,-0.10206 1.19062,-0.24304 3.34934,-0.25033 5.93471,-0.0616 7.86301,0.57412 0.83215,0.27433 1.56296,0.49878 1.62401,0.49878 0.061,0 -0.65935,-1.15216 -1.60089,-2.56036 -2.92512,-4.37492 -5.27602,-9.65205 -6.69766,-15.03443 -2.98507,-11.30161 -2.61376,-23.2287 1.06668,-34.26355 1.81504,-5.44191 5.37807,-11.84903 8.9826,-16.15267 l 1.51162,-1.8048 0.16527,-4.18429 c 0.40885,-10.35132 3.71833,-23.28467 6.89837,-26.95858 l 0.89864,-1.0382 2.47646,0.0279 c 1.86691,0.0211 3.0626,0.20401 4.85772,0.74325 6.60636,1.9845 15.45413,6.34061 22.48928,11.07236 1.74608,1.17439 3.29389,2.12507 3.43958,2.1126 0.14569,-0.0125 1.75317,-0.32321 3.57218,-0.69056 5.78633,-1.16854 10.4121,-1.59883 17.19792,-1.59975 8.50836,-10e-4 16.41963,0.84789 23.47321,2.51914 l 2.17425,0.51516 1.52991,-1.04108 c 1.78274,-1.21311 6.94005,-3.82831 10.14553,-5.14465 5.2953,-2.17452 13.35632,-4.35195 17.07078,-4.61111 1.78489,-0.12454 1.90015,-0.0974 2.4265,0.57177 0.69393,0.88219 1.78812,5.48188 2.16359,9.09519 0.58019,5.58331 0.26033,13.09962 -0.77771,18.27556 l -0.49678,2.47708 1.35535,1.62396 c 3.19955,3.83364 6.61969,9.96034 8.66081,15.51459 1.37042,3.72919 2.97544,9.94789 3.61925,14.02292 0.68649,4.34519 0.69238,15.77888 0.0104,20.10833 -0.96973,6.15581 -2.33086,10.69673 -4.56023,15.21354 -6.76265,13.70143 -19.41733,21.42263 -40.96687,24.99577 -5.09232,0.84435 -10.90621,1.50746 -15.57535,1.77644 -1.56434,0.0901 -2.84427,0.20154 -2.84427,0.2476 0,0.27595 2.79622,4.74553 3.82531,6.11452 2.53312,3.36979 7.38662,6.75549 11.72076,8.17616 2.08354,0.68295 2.66809,0.75827 5.88518,0.75827 4.27149,0 8.09341,-0.70232 7.78215,-1.43006 -1.26626,-2.96054 -1.48533,-5.73259 -0.64846,-8.2053 1.00689,-2.97503 2.31486,-4.45181 5.30173,-5.98598 1.8538,-0.95218 5.59538,-1.23752 7.2364,-0.55186 l 1.00777,0.42107 0.70656,-0.83302 c 0.38861,-0.45816 0.85946,-1.04753 1.04634,-1.30971 0.60729,-0.85199 3.44572,-2.8789 5.14514,-3.67411 9.40425,-4.40054 19.58767,-0.58301 24.5077,9.18737 2.97262,5.90315 3.16564,12.89356 0.50551,18.30786 -2.42199,4.92959 -7.8266,8.58836 -13.90653,9.41434 -0.83968,0.11407 -1.68689,0.4287 -2.11667,0.78607 -3.07175,2.55422 -10.3933,5.71593 -16.0145,6.91566 -5.57443,1.18974 -13.41516,1.51383 -18.64353,0.77061 -5.05954,-0.71922 -10.6527,-2.36851 -14.34502,-4.23002 -3.06002,-1.54272 -7.52563,-4.76109 -8.82865,-6.36282 l -0.49427,-0.60758 -1.43385,1.16789 c -1.74414,1.42062 -3.14541,2.15901 -4.51193,2.37752 -0.98145,0.15694 -1.09629,0.2845 -2.44791,2.71899 -2.35885,4.24869 -4.92309,7.79938 -7.91279,10.9568 -0.79331,0.83782 -1.39366,1.55702 -1.3341,1.59821 4.63646,3.20661 10.35568,8.90161 14.18353,14.12349 2.06459,2.81647 4.90267,7.55491 6.46913,10.80083 0.63205,1.30968 1.17485,2.42624 1.20622,2.48124 0.0314,0.055 1.2225,-0.6554 2.64697,-1.57866 6.98885,-4.52977 13.59874,-7.01751 19.39098,-7.2981 4.38411,-0.21239 7.15953,0.58577 9.55156,2.74683 2.66148,2.40448 3.68622,6.58663 2.87137,11.71848 -2.08766,13.14775 -14.88548,27.04531 -30.71117,33.35024 -4.64622,1.85105 -8.28781,2.66928 -12.40343,2.78693 -2.55397,0.073 -4.00466,-0.008 -5.09055,-0.28371 z m -23.29459,-89.4941 c -0.0608,-0.40218 -0.11219,-0.13592 -0.11418,0.59168 -0.002,0.7276 0.0478,1.05666 0.11057,0.73124 0.0628,-0.32542 0.0644,-0.92073 0.004,-1.32292 z m -0.2737,-1.97147 c -0.0845,-0.21107 -0.14716,-0.14837 -0.15985,0.15985 -0.0115,0.27892 0.051,0.43519 0.13896,0.34727 0.0879,-0.0879 0.0973,-0.31613 0.0209,-0.50712 z m -2.03282,-4.97748 c -0.15576,-0.29104 -0.34274,-0.52916 -0.4155,-0.52916 -0.0728,0 -0.005,0.23812 0.15091,0.52916 0.15577,0.29105 0.34274,0.52917 0.4155,0.52917 0.0728,0 0.005,-0.23812 -0.15091,-0.52917 z m 40.172,-3.57187 c 0.0482,-0.72761 0.009,-2.28692 -0.0865,-3.46515 l -0.17414,-2.14222 -0.70724,0.14993 c -0.61297,0.12995 -0.63272,0.16162 -0.14818,0.23765 0.4754,0.0746 0.58427,0.329 0.7276,1.70038 0.0927,0.88696 0.16856,2.30129 0.16856,3.14294 0,1.37269 -0.0613,1.54346 -0.59531,1.65818 -0.5246,0.11269 -0.51674,0.12274 0.0661,0.0846 0.59867,-0.0392 0.66978,-0.16892 0.74909,-1.36626 z m -2.072,0.92604 c -0.36381,-0.11651 -0.89959,-0.21184 -1.19063,-0.21184 -0.41901,0 -0.39147,0.0441 0.13229,0.21184 0.36381,0.11651 0.89959,0.21184 1.19063,0.21184 0.41901,0 0.39147,-0.0441 -0.13229,-0.21184 z m -2.58617,-0.59631 -0.86637,-0.2777 0.12125,-2.40727 c 0.1028,-2.04105 0.088,-2.16576 -0.0971,-0.81976 -0.40138,2.91826 -0.34861,3.52104 0.31953,3.64973 1.10818,0.21345 1.39378,0.13422 0.52269,-0.145 z m -93.49779,-3.23529 c 0.5608,-0.50666 1.40156,-1.63775 1.86836,-2.51355 l 0.84871,-1.59235 -2.33062,-0.007 c -1.40702,-0.004 -3.06457,-0.20156 -4.1827,-0.49802 l -1.85208,-0.49106 -1.19063,0.62305 c -1.19018,0.62281 -2.64583,1.78229 -2.64583,2.1075 0,0.0948 0.43059,-0.20567 0.95686,-0.66775 1.70327,-1.49549 2.53161,-1.75624 4.27684,-1.3463 0.83224,0.19549 2.6145,0.40938 3.96057,0.47532 1.34607,0.0659 2.4474,0.17267 2.4474,0.23718 0,0.49065 -1.27829,2.42692 -2.17978,3.30179 -0.97241,0.94368 -1.20824,1.05022 -2.03957,0.92136 -0.68872,-0.10676 -0.79856,-0.0816 -0.41086,0.094 0.9374,0.4247 1.43302,0.2956 2.47333,-0.64425 z m -4.59765,-0.24827 c -0.87733,-0.33794 -2.21678,-0.92944 -2.97656,-1.31445 -0.75978,-0.385 -1.38141,-0.64089 -1.38141,-0.56864 0,0.32009 4.85154,2.50237 5.55625,2.49926 0.21828,-9.6e-4 -0.32095,-0.27824 -1.19828,-0.61617 z m 49.68317,-1.39852 c -0.32742,-0.0631 -0.8632,-0.0631 -1.19062,0 -0.32743,0.0631 -0.0595,0.11466 0.59531,0.11466 0.65484,0 0.92273,-0.0516 0.59531,-0.11466 z m 50.73385,-0.35542 c 0.44608,-0.1516 0.2307,-0.17505 -0.66146,-0.072 -0.7276,0.084 -1.37252,0.19707 -1.43315,0.25118 -0.20835,0.18594 1.43358,0.0455 2.09461,-0.17917 z M 170.969,439.63815 c -0.33418,-0.0649 -0.62663,-0.35739 -0.69157,-0.69158 -0.0926,-0.47668 -0.1189,-0.45041 -0.14856,0.14857 -0.0314,0.634 0.0576,0.72297 0.69157,0.69157 0.59898,-0.0297 0.62524,-0.0559 0.14856,-0.14856 z m 1.83581,-0.25522 c -0.1819,-0.0734 -0.47955,-0.0734 -0.66145,0 -0.18191,0.0734 -0.0331,0.13345 0.33072,0.13345 0.36381,0 0.51263,-0.06 0.33073,-0.13345 z m 2.31511,-0.35394 c 0.51831,-0.16599 0.54694,-0.21077 0.13229,-0.20691 -0.29104,0.003 -0.88635,0.0958 -1.32292,0.20691 -0.71297,0.18142 -0.72644,0.20248 -0.13229,0.20691 0.3638,0.003 0.95912,-0.0904 1.32292,-0.20691 z m 1.51584,-0.42444 c -0.0879,-0.0879 -0.31612,-0.0973 -0.50712,-0.0209 -0.21107,0.0845 -0.14837,0.14715 0.15985,0.15985 0.27892,0.0115 0.43519,-0.0511 0.34727,-0.13897 z m 1.05833,-0.26458 c -0.0879,-0.0879 -0.31612,-0.0973 -0.50712,-0.0209 -0.21106,0.0845 -0.14837,0.14716 0.15986,0.15986 0.27891,0.0115 0.43518,-0.0511 0.34726,-0.13897 z m -46.74118,-0.52378 c 0.46407,-0.55918 0.001,-1.30074 -0.81216,-1.30074 -0.81321,0 -1.27623,0.74156 -0.81215,1.30074 0.19128,0.23048 0.55675,0.41905 0.81215,0.41905 0.25541,0 0.62088,-0.18857 0.81216,-0.41905 z m 38.59927,-1.46356 c -0.70669,-1.79462 -2.16029,-4.20388 -2.94298,-4.87784 -0.4989,-0.42958 -0.48303,-0.3736 0.0951,0.33563 0.97345,1.19414 2.17091,3.39495 2.75084,5.05579 0.27061,0.775 0.52937,1.29704 0.57502,1.16009 0.0456,-0.13695 -0.16946,-0.8901 -0.47801,-1.67367 z m 9.20025,1.72276 c -0.0879,-0.0879 -0.31613,-0.0973 -0.50712,-0.0209 -0.21107,0.0845 -0.14837,0.14716 0.15985,0.15985 0.27892,0.0115 0.43519,-0.051 0.34727,-0.13896 z m 1.99638,-1.3615 c -0.0873,-0.54571 -0.25851,-1.28985 -0.38053,-1.65365 -0.18213,-0.54298 -0.19812,-0.50151 -0.0893,0.23151 0.0729,0.49113 0.13258,1.23527 0.13258,1.65365 0,0.41837 0.11158,0.76067 0.24795,0.76067 0.13834,0 0.17781,-0.43861 0.0893,-0.99218 z m -5.89348,-5.22552 c -0.3638,-0.20797 -0.78052,-0.37813 -0.92604,-0.37813 -0.14552,0 0.0331,0.17016 0.39688,0.37813 0.3638,0.20796 0.78052,0.37812 0.92604,0.37812 0.14552,0 -0.0331,-0.17016 -0.39688,-0.37812 z m -9.53499,-1.43604 c -0.94628,-0.80015 -2.90042,-2.00011 -2.90042,-1.78104 0,0.0682 0.50616,0.42071 1.1248,0.78326 0.61864,0.36255 1.35147,0.90964 1.62851,1.21577 0.27703,0.30612 0.62958,0.55659 0.78343,0.55659 0.15385,0 -0.13249,-0.34856 -0.63632,-0.77458 z m 67.08187,-0.28811 c 11.29294,-1.04181 22.07822,-4.26639 28.32838,-8.46962 8.19763,-5.5129 12.76933,-14.52879 13.58555,-26.79215 0.94818,-14.24596 -3.88919,-24.1587 -12.94206,-26.52089 -2.33051,-0.6081 -6.16534,-0.41083 -12.30312,0.63289 -8.32657,1.41593 -11.78892,1.72405 -19.44688,1.73058 -8.13237,0.007 -12.60415,-0.43002 -23.8125,-2.32687 -6.29443,-1.06524 -9.03795,-1.29842 -13.47559,-1.14531 -4.76634,0.16445 -7.55342,0.80023 -11.25729,2.56802 -8.55769,4.08442 -13.08865,11.73811 -13.09906,22.1269 -0.009,8.69359 2.7116,15.65327 8.60416,22.01306 7.74059,8.35435 21.84771,14.17532 38.88508,16.04502 3.89269,0.42718 12.99627,0.50158 16.93333,0.13837 z M 221.422,418.00739 c -3.64522,-0.92536 -7.00548,-3.12529 -8.50636,-5.56903 -0.88635,-1.44316 -0.36484,-3.04942 0.98657,-3.03865 0.75369,0.006 1.1085,0.30592 2.04352,1.72736 1.9041,2.89468 5.02346,4.57862 8.91585,4.81311 2.7941,0.16833 4.82269,-0.23362 6.99484,-1.38597 1.43722,-0.76246 1.744,-0.83817 2.29312,-0.56586 0.38121,0.18904 0.66633,0.59199 0.71522,1.01081 0.10623,0.90992 -1.0644,1.81494 -3.38859,2.61972 -2.18031,0.75496 -7.76115,0.97061 -10.05417,0.38851 z m 11.6153,-9.13851 c -1.71069,-0.90417 -3.6778,-3.65935 -3.6778,-5.15122 0,-1.53399 1.95264,-2.25951 6.08121,-2.25951 2.62504,0 3.50428,0.24193 4.56827,1.25696 1.18866,1.13397 0.91553,2.47483 -0.90683,4.45186 -2.00024,2.17 -4.07674,2.75271 -6.06485,1.70191 z m -37.23324,-6.10633 c -4.31955,-0.85005 -7.8268,-4.74875 -8.90902,-9.90335 -0.50967,-2.42756 -0.50535,-6.48459 0.009,-8.47723 0.99888,-3.86952 3.16444,-6.90845 5.86426,-8.22935 2.04128,-0.99871 4.69683,-1.14471 6.74659,-0.37092 5.09308,1.92264 8.20594,8.92968 7.34256,16.52805 -0.65615,5.77453 -3.05523,9.30068 -7.03275,10.3367 -1.67681,0.43675 -2.29987,0.45474 -4.02068,0.1161 z m 5.33252,-17.45601 c 2.15292,-1.69349 0.81755,-5.8088 -1.88488,-5.8088 -1.23283,0 -2.11443,0.59285 -2.59619,1.74587 -0.47657,1.14059 -0.46706,2.05938 0.0313,3.02306 0.79249,1.53249 3.1293,2.07857 4.4498,1.03987 z m 49.25729,17.12917 c -1.36305,-0.65199 -3.22916,-2.45754 -3.91873,-3.79157 -0.21547,-0.41682 -0.66898,-1.65083 -1.00782,-2.74224 -0.80885,-2.60531 -0.88086,-8.41422 -0.13751,-11.09134 2.21091,-7.96237 8.73069,-11.24125 13.56568,-6.82234 2.57812,2.35625 3.791,5.8881 3.7976,11.05834 0.006,5.08879 -1.24972,8.85268 -3.83255,11.48324 -1.72589,1.75779 -2.98248,2.3396 -5.29167,2.45009 -1.527,0.0731 -2.08428,-0.0224 -3.175,-0.54418 z m 5.01801,-16.69942 c 1.11701,-0.46672 1.72887,-1.6003 1.72887,-3.20306 0,-0.99521 -0.14209,-1.3662 -0.75985,-1.98396 -1.43236,-1.43236 -3.23708,-1.26314 -4.26489,0.39989 -1.03272,1.67097 -0.47188,3.94004 1.1747,4.75267 1.00046,0.49376 1.02111,0.49409 2.12117,0.0345 z m -93.16604,42.06138 c 0.0981,-0.25574 0.02,-0.33461 -0.23475,-0.23686 -0.21004,0.0806 -0.31601,0.25313 -0.2355,0.3834 0.20279,0.32812 0.2997,0.29791 0.47025,-0.14654 z m 1.23241,-0.67493 c 0.21828,-0.14106 0.27781,-0.25648 0.13229,-0.25648 -0.14552,0 -0.44317,0.11542 -0.66146,0.25648 -0.21828,0.14106 -0.27781,0.25648 -0.13229,0.25648 0.14552,0 0.44318,-0.11542 0.66146,-0.25648 z M 131.7944,410.01418 c -0.1819,-0.0734 -0.47956,-0.0734 -0.66146,0 -0.1819,0.0734 -0.0331,0.13345 0.33073,0.13345 0.3638,0 0.51263,-0.0601 0.33073,-0.13345 z"
         id="path2" /><path
         id="path1"
         style="fill:#124bd4;fill-opacity:1"
         d="m 156.46228,308.71604 c -0.0659,-0.002 -0.15002,0.0293 -0.25941,0.0879 -2.63102,1.40808 -5.57433,15.71392 -5.60483,27.24226 l -0.0145,5.42396 -1.52704,1.69396 c -3.32811,3.6925 -7.10665,11.16922 -9.08523,17.97771 -1.72147,5.92369 -2.13917,9.14768 -2.13217,16.44396 0.005,5.1078 0.10868,7.0433 0.48886,9.12812 2.07342,11.37019 6.14276,19.57395 13.26276,26.73894 3.33931,3.36041 8.29207,7.34625 11.12283,8.95139 0.52345,0.29669 0.59449,0.39431 0.21394,0.29301 -0.31334,-0.0834 -1.22523,-0.25877 -2.02623,-0.38913 -1.77215,-0.28843 -3.17337,-0.97348 -5.60638,-2.74143 -3.97654,-2.88957 -9.62906,-8.11658 -9.67796,-8.94933 -0.0132,-0.22539 -0.0665,-0.24537 -0.14469,-0.0548 -0.0859,0.2093 -0.4238,0.15557 -1.11053,-0.17622 -1.40069,-0.67674 -3.74786,-1.02926 -6.66161,-1.00046 -1.30347,0.0129 -1.88016,0.0319 -1.8867,0.0842 4.1e-4,0.0324 0.21544,0.0783 0.60874,0.14262 3.50952,0.57376 6.3598,2.00463 9.14208,4.5899 1.71519,1.59374 4.0538,4.8507 5.1046,7.10861 0.32255,0.69307 0.692,1.32507 0.82062,1.40457 0.3698,0.22855 0.28131,-0.0754 -0.43201,-1.48311 -0.35481,-0.70019 -0.59181,-1.2767 -0.54054,-1.31207 l 5.2e-4,-5.2e-4 c 0.001,-6.4e-4 0.003,-10e-4 0.005,-10e-4 0.0722,0 0.37082,0.46856 0.663,1.04128 0.43216,0.8471 0.69203,1.05688 1.39423,1.12448 0.49462,0.0476 1.23072,-0.12611 1.72393,-0.40669 1.03252,-0.58737 1.23636,-0.86469 0.82269,-1.12035 -0.21184,-0.13093 -0.23895,-0.0743 -0.0858,0.17984 0.19173,0.31796 0.15823,0.31851 -0.23048,0.003 -0.24975,-0.20264 -0.3995,-0.42268 -0.3328,-0.48938 0.0667,-0.0667 -0.49619,-0.71364 -1.25057,-1.43764 l -1.37149,-1.3162 1.80816,1.4087 c 0.99431,0.77502 1.96197,1.51865 2.15026,1.6521 0.25063,0.17764 -0.16023,0.60295 -1.53273,1.5875 -3.52942,2.53179 -6.7639,7.33868 -7.58093,11.26649 -0.19675,0.94589 -0.48652,1.80719 -0.64389,1.9141 -0.15736,0.10691 -1.03767,0.44676 -1.95647,0.75499 -0.89368,0.2998 -1.58519,0.59129 -1.56941,0.65991 8e-5,2.7e-4 4.1e-4,10e-4 5.1e-4,0.002 1.4e-4,2.5e-4 8.8e-4,0.001 0.001,0.002 3.5e-4,4.8e-4 0.001,0.002 0.002,0.002 0.0575,0.0575 0.96889,-0.18954 2.0252,-0.54881 4.13318,-1.40579 9.792,-2.52777 12.97698,-2.57297 1.49438,-0.0212 1.69777,0.0474 2.52543,0.84957 1.61654,1.56681 3.81321,6.99426 2.94504,7.27655 -0.16649,0.0541 -1.31485,0.29308 -2.55178,0.53072 -1.23692,0.23764 -2.83615,0.60167 -3.55379,0.80874 -0.71763,0.20707 -1.67014,0.37999 -2.11667,0.38499 -0.61843,0.007 -0.26637,0.21614 1.47692,0.87953 1.25874,0.47899 3.11809,1.37225 4.13204,1.98489 1.75652,1.06131 1.89869,1.10168 3.00344,0.84698 0.63772,-0.14702 2.5929,-0.26989 4.34495,-0.27389 5.49561,-0.0112 8.02804,0.97183 11.51403,4.46898 3.47,3.48113 5.33507,7.52452 5.33507,11.5657 0,2.41888 -0.73912,4.07649 -2.36316,5.29839 -1.88485,1.41814 -4.8395,1.67321 -4.8395,0.41806 0,-1.07749 -0.86235,-3.76318 -1.86758,-5.8167 -1.5675,-3.20216 -1.84625,-2.8764 -0.88212,1.03043 1.11795,4.53016 -0.057,7.53684 -3.4525,8.83357 -1.35371,0.51699 -3.76544,0.42718 -4.1243,-0.15348 -0.11885,-0.19229 -0.29876,-1.07128 -0.39997,-1.95389 -0.22254,-1.94051 -1.01327,-4.59633 -1.87586,-6.30142 -0.63174,-1.24878 -1.05711,-1.67966 -0.78393,-0.79375 0.36249,1.17551 0.67841,6.46493 0.44752,7.49256 -0.70557,3.14031 -5.26548,4.74904 -8.95708,3.16002 -2.16713,-0.93283 -3.25568,-2.40572 -4.00802,-5.42344 -0.18092,-0.72567 -0.46914,-1.40838 -0.64027,-1.51722 -0.55515,-0.35309 -1.41484,-0.21827 -2.11409,0.33176 -0.65971,0.51888 -0.70534,0.52126 -1.29242,0.0661 -1.40107,-1.08616 -4.151,-4.02168 -5.15111,-5.49889 -2.10178,-3.1044 -3.65886,-6.70886 -4.62969,-10.71563 -0.45245,-1.8687 -0.45782,-8.10749 -0.007,-8.92038 0.17863,-0.32227 1.33322,-1.14718 2.56574,-1.83348 1.23251,-0.6863 2.20242,-1.28626 2.15542,-1.33326 -0.047,-0.047 -1.14677,0.48026 -2.44378,1.17203 -3.32029,1.77092 -5.96589,4.38946 -6.6306,6.5629 -0.69707,2.27922 -0.628,7.68833 0.13436,10.52804 1.79678,6.69274 6.2001,13.20812 10.20764,15.10399 1.52098,0.71955 3.73824,0.91199 4.9966,0.43356 0.59926,-0.22783 0.68373,-0.15774 1.08934,0.90434 0.63104,1.65235 2.23539,3.34317 4.16408,4.38888 1.55344,0.84226 1.84165,0.90686 4.0535,0.90486 2.7275,-0.002 3.84057,-0.43743 5.50975,-2.15594 l 0.97823,-1.00718 -0.447,1.1374 c -0.77954,1.98452 -3.57256,4.01216 -5.5268,4.01216 -0.42118,0 -0.4322,0.0423 -0.0868,0.33073 0.21782,0.18191 1.06637,1.16416 1.88567,2.18281 2.0338,2.52865 3.93644,4.32772 8.13801,7.69359 8.8942,7.12512 11.26833,9.36349 14.78204,13.9361 5.24239,6.82225 8.95764,13.95004 14.58257,27.97968 3.42052,8.53144 4.4549,10.88301 5.80068,13.18731 1.34895,2.30973 2.53564,3.70816 3.43855,4.05144 0.55164,0.20974 0.60104,0.30175 0.28112,0.52451 -0.29421,0.20489 -0.21233,0.24168 0.33951,0.15348 0.40019,-0.064 0.72761,-0.0216 0.72761,0.0941 0,0.11567 0.32742,0.2682 0.7276,0.339 l -5.1e-4,5.2e-4 c 1.90357,0.33689 6.88009,-0.0918 9.98802,-0.86042 16.41541,-4.05953 31.93017,-17.68266 35.95491,-31.5712 1.44209,-4.97635 1.50261,-9.64605 0.15503,-11.93002 -2.06045,-3.49221 -9.78622,-2.821 -17.43718,1.51516 -3.98395,2.25789 -6.70355,4.42738 -11.28407,9.00306 -4.53802,4.53324 -7.23087,7.67673 -12.67674,14.79497 -1.87699,2.45339 -3.6873,4.58576 -4.02301,4.73872 -0.93063,0.42403 -1.81984,-0.12755 -2.55127,-1.58284 -0.35019,-0.69673 -1.85462,-4.06456 -3.34346,-7.4843 -5.22244,-11.99552 -10.34327,-21.40902 -15.2182,-27.97659 -2.14451,-2.88912 -8.01951,-8.98408 -13.0762,-13.56506 -2.77522,-2.51414 -4.2571,-4.39901 -4.2571,-5.41518 0,-1.04869 0.7933,-1.66757 4.41575,-3.44681 3.04911,-1.49763 3.91377,-2.06221 5.33455,-3.483 0.93257,-0.93256 1.62136,-1.76965 1.53066,-1.86035 -0.0907,-0.0907 0.41646,-0.77982 1.12706,-1.53117 1.62156,-1.71457 2.29886,-3.03274 2.67891,-5.21518 0.58654,-3.36814 -0.61458,-8.00305 -3.02514,-11.67319 l -1.17512,-1.78904 0.55242,-1.24695 c 0.78377,-1.76918 1.75841,-5.44421 1.95647,-7.37733 l 0.16847,-1.64538 2.02881,1.02009 c 6.321,3.17814 13.54731,5.03639 19.58744,5.03639 2.6176,0 7.71439,-0.61787 8.9395,-1.08366 l 0.63769,-0.24236 -0.17983,1.78749 c -0.42817,4.2674 -2.15802,10.38649 -4.45968,15.77475 -0.67328,1.57616 -1.22421,2.92666 -1.22421,3.00136 0,0.20795 1.72773,-0.16271 2.75073,-0.59014 0.50149,-0.20954 1.68241,-0.96411 2.62413,-1.6769 l 1.71256,-1.29605 1.56579,1.48932 c 6.48613,6.16731 18.10087,10.23099 28.70885,10.04486 1.23029,-0.0216 1.80852,-0.0378 1.85518,-0.0754 5.5e-4,-5.4e-4 0.002,-0.002 0.002,-0.003 1.2e-4,-2.7e-4 4.5e-4,-10e-4 5.1e-4,-0.002 3e-5,-5.6e-4 1.8e-4,-0.002 0,-0.003 -2.8e-4,-5.7e-4 -10e-4,-0.002 -0.002,-0.003 -0.0304,-0.0298 -0.33046,-0.0723 -0.85369,-0.13642 l -1.45521,-0.17829 1.98438,-0.0444 c 5.86289,-0.12992 15.28114,-2.88924 20.92017,-6.12934 1.24684,-0.71641 2.55652,-1.41004 2.91041,-1.54151 0.57086,-0.21206 0.49415,-0.26052 -0.67954,-0.42839 -2.13739,-0.3057 -4.28604,-1.25905 -5.96553,-2.64687 -0.84274,-0.69639 -1.49671,-1.30819 -1.48053,-1.38286 9e-5,-2.8e-4 4.1e-4,-10e-4 5.2e-4,-0.002 1.3e-4,-2.5e-4 3.6e-4,-10e-4 5.1e-4,-0.002 l 5.2e-4,-5.2e-4 5.2e-4,-5.2e-4 c 1.9e-4,-1.9e-4 8.1e-4,-3.3e-4 0.001,-5.1e-4 l 5.2e-4,-5.2e-4 c 0.068,-0.0379 0.92233,0.39942 1.91409,0.98185 3.23856,1.9019 8.02214,3.01091 11.21689,2.60036 0.80037,-0.10286 2.4077,-0.48932 3.57187,-0.85886 6.72649,-2.13519 11.12015,-7.57682 11.87473,-14.70815 l 0.154,-1.45521 -0.48266,1.47898 c -0.58243,1.78591 -1.69298,3.45315 -3.26595,4.90306 -2.65148,2.44405 -5.32186,3.39244 -9.08834,3.22771 -2.24806,-0.0983 -2.64132,-0.20144 -4.73769,-1.24023 -3.83712,-1.90137 -6.10185,-4.74877 -7.18044,-9.02736 -0.53693,-2.12993 -0.34725,-4.42412 0.50333,-6.08386 0.52499,-1.02442 2.0158,-2.46514 3.78013,-3.65301 1.08316,-0.72926 -1.07478,-0.0177 -3.55586,1.17254 -1.34483,0.64512 -2.49598,1.12678 -2.5802,1.08055 -6e-4,-4e-4 -0.002,-0.002 -0.003,-0.002 -0.0595,-0.0595 -0.58312,-1.02615 -1.16375,-2.14819 -1.14511,-2.21287 -1.3083,-3.42026 -0.75757,-5.6074 0.37015,-1.46999 2.1602,-3.52819 3.65404,-4.20182 0.5943,-0.268 1.0354,-0.53246 0.9803,-0.58756 -0.2161,-0.2161 -3.29982,1.11405 -4.85965,2.096 -1.51261,0.95222 -5.09995,4.46351 -5.09995,4.99194 0,0.12421 -0.32743,0.1 -0.72761,-0.0537 -0.40018,-0.15375 -1.7591,-0.29951 -3.01997,-0.32401 -1.26087,-0.0246 -2.2597,-0.0778 -2.2195,-0.11834 0.0402,-0.0405 0.59599,-0.18633 1.23455,-0.32401 l 1.16065,-0.25063 -1.3255,0.10593 c -4.76119,0.37941 -8.527,4.17728 -9.02632,9.10384 -0.16337,1.61193 0.42362,4.7205 1.06402,5.6348 0.32388,0.46239 0.2961,0.59222 -0.24133,1.12965 -0.44906,0.44906 -0.65422,1.04774 -0.78807,2.29805 -0.30968,2.89253 0.56328,6.34198 2.52491,9.97872 0.72911,1.35167 0.98221,2.06722 0.79737,2.25205 -0.42641,0.42641 -7.42261,0.55592 -9.75237,0.18036 -4.53203,-0.73057 -11.4067,-3.65496 -14.01052,-5.95985 -0.76399,-0.67628 -1.38906,-1.31792 -1.38906,-1.42575 0,-0.7029 7.90517,-5.38272 10.58333,-6.26525 l 1.45521,-0.47956 -1.05833,-0.18913 c -0.58208,-0.10414 -1.87445,-0.49759 -2.87218,-0.87385 -5.13841,-1.93776 -9.80051,-5.97239 -12.91859,-11.1802 l -1.76837,-2.95331 2.56212,-0.16536 c 7.065,-0.45636 20.00895,-2.21624 22.40535,-3.04633 0.36585,-0.12672 0.56315,-0.19521 0.57878,-0.21755 l 5.1e-4,-5.2e-4 v -5.2e-4 l 5.2e-4,-5.1e-4 v -5.2e-4 -5.2e-4 -5.2e-4 -5.1e-4 l -5.2e-4,-5.2e-4 c -0.0165,-0.0159 -0.24859,0.0206 -0.71158,0.0946 -0.50932,0.0814 -1.87854,0.31939 -3.04271,0.52917 -5.57693,1.00496 -18.65975,1.12905 -26.06146,0.24701 -4.61998,-0.55054 -11.62372,-1.96674 -16.13958,-3.26337 -16.45662,-4.72514 -28.73892,-12.46498 -37.86952,-23.86314 -6.57431,-8.20703 -10.95736,-18.42884 -12.58838,-29.35945 -0.55998,-3.75287 -0.62021,-12.76273 -0.10904,-16.27187 0.83495,-5.73185 2.28931,-10.84276 3.72019,-13.07259 1.48208,-2.30962 7.52449,-6.21651 13.38574,-8.65529 l 2.97295,-1.23713 -1.12707,-1.74666 c -4.35696,-6.75498 -7.99931,-18.02563 -8.65993,-26.79527 -0.0294,-0.39047 -0.0844,-0.55695 -0.22945,-0.56172 z m 106.89322,3.81424 c -0.0919,-0.004 -0.19648,0.013 -0.29197,0.0512 -0.21107,0.0845 -0.14855,0.14749 0.15968,0.16019 0.27886,0.0115 0.43517,-0.0511 0.34727,-0.13901 -0.044,-0.0439 -0.12306,-0.0686 -0.21498,-0.0723 z m -1.45572,0.26406 c -0.2624,-0.0121 -1.08292,0.17105 -3.23495,0.65371 -5.35417,1.20084 -12.45332,3.82389 -17.24752,6.37274 -2.46776,1.312 -5.2856,3.05055 -5.2896,3.26337 -1e-5,2.9e-4 -3e-5,7.3e-4 0,10e-4 0.0139,0.078 0.98957,0.41794 2.18074,0.75861 1.20055,0.34334 2.71859,0.84139 3.37344,1.10691 1.6615,0.67369 2.00945,0.63332 3.26285,-0.37931 2.76679,-2.23529 10.93596,-7.489 16.0383,-10.3141 0.79307,-0.43912 1.29844,-0.84635 1.12293,-0.90485 -0.17556,-0.0585 -0.2518,-0.21521 -0.1695,-0.3483 0.0772,-0.125 0.12075,-0.20252 -0.0367,-0.20981 z m -2.29392,0.89556 c 0.20089,0.007 0.33228,0.0333 0.33228,0.0847 0,0.12364 -0.55742,0.24601 -1.23869,0.27181 -0.63336,0.0239 -1.11547,0.005 -1.12964,-0.0419 v -5.2e-4 -5.2e-4 -5.1e-4 -5.2e-4 c 3e-4,-0.003 0.002,-0.006 0.005,-0.009 0.19829,-0.17264 1.42821,-0.32511 2.03088,-0.30385 z m -86.98539,61.72698 c -2.25466,2.80873 -3.82741,6.19722 -4.67051,10.11049 -0.6316,2.93157 -0.62431,9.78352 0.0134,12.65298 3.23906,14.5739 14.83609,24.4491 34.69246,29.54186 4.24678,1.08921 9.16129,1.92984 14.02291,2.39831 4.51938,0.43549 13.20365,0.31223 17.85938,-0.25374 13.65478,-1.65993 23.98089,-5.56045 30.09584,-11.36778 4.99745,-4.74605 7.90409,-10.63056 9.49296,-19.21743 0.58167,-3.14361 0.67382,-12.13364 0.15296,-14.94896 -0.36546,-1.97536 -0.96121,-4.0762 -1.66657,-5.93504 a 51.220383,38.761368 0 0 1 0.39171,1.95131 c 1.14273,3.73794 1.59886,7.91747 1.39992,12.71498 -0.53946,13.00909 -5.24942,22.67493 -13.78573,28.2913 -7.05761,4.64346 -17.42988,7.58658 -30.44672,8.63927 -8.77197,0.70939 -20.64129,-0.52277 -29.52274,-3.06493 -17.9644,-5.142 -28.66043,-14.26896 -32.04869,-27.34769 -0.71773,-2.77043 -0.80064,-3.51513 -0.83354,-7.44399 -0.0279,-3.33735 0.077,-4.89534 0.44597,-6.61458 0.76894,-3.58277 2.17623,-6.73358 4.1708,-9.39323 a 51.220383,38.761368 0 0 1 0.23616,-0.71313 z m -30.89114,34.5028 c 0.14276,10e-4 0.34522,0.0509 0.61495,0.14883 0.42929,0.15586 0.63149,0.29287 0.44959,0.30437 -0.1819,0.0115 -0.33073,0.14665 -0.33073,0.30076 0,0.15375 0.0947,0.22156 0.21084,0.14986 0.11609,-0.0718 0.38398,-0.008 0.59531,0.1416 0.15384,0.10893 0.23095,0.17068 0.22738,0.19172 -0.006,0.0207 -0.10169,-0.002 -0.28887,-0.062 -0.24526,-0.0783 -0.48337,-0.0406 -0.52917,0.0837 -0.0458,0.12428 -0.61898,-0.073 -1.27382,-0.43873 -0.6549,-0.36574 -0.92869,-0.60612 -0.60824,-0.53382 0.32044,0.0723 0.6243,0.007 0.6749,-0.14469 0.0318,-0.0956 0.1151,-0.14275 0.25786,-0.1416 z m -52.333236,3.22616 c -0.05345,5.2e-4 -0.14811,0.10609 -0.309025,0.32195 -0.80239,1.07633 0.533437,4.72969 2.579687,7.05435 1.26111,1.4327 3.865323,3.23526 5.290633,3.6623 l 1.008724,0.30231 0.185002,1.88309 c 0.23342,2.37803 1.192747,6.11878 2.255155,8.79326 3.21357,8.08969 9.61264,15.11993 17.97979,19.75384 3.08731,1.70982 8.55784,3.62536 11.77395,4.12274 0.72761,0.11255 1.35697,0.18276 1.39837,0.15606 0.0414,-0.0267 -0.0496,-0.57052 -0.20206,-1.20819 -0.46596,-1.94892 -0.63164,-7.32483 -0.29249,-9.49348 0.46988,-3.00461 1.29592,-4.5325 3.76773,-6.96805 0.94509,-0.93123 1.53258,-1.56718 1.51361,-1.62729 -1.3e-4,-2.7e-4 -3.7e-4,-10e-4 -5.2e-4,-0.002 -1.8e-4,-2.1e-4 -0.001,-8.5e-4 -0.002,-10e-4 l -5.2e-4,-5.2e-4 c -0.012,-0.006 -0.0544,0.0163 -0.12816,0.0698 -2.26788,1.64507 -3.99286,3.87128 -5.99343,7.73493 l -1.43867,2.77813 -1.25419,0.0816 c -0.69001,0.0449 -2.06229,-0.10208 -3.04942,-0.3266 -1.65735,-0.37695 -1.86333,-0.37371 -2.68718,0.0434 -1.29209,0.6542 -4.322,0.75408 -6.21202,0.20464 -1.34319,-0.39048 -3.41672,-1.28553 -3.80494,-1.64228 -0.22869,-0.21015 4.31935,-4.28748 5.45342,-4.88911 l 1.09605,-0.58187 2.35903,0.57826 c 3.44754,0.8455 6.22983,0.68038 6.38153,-0.37931 0.0768,-0.53639 -0.0513,-0.56386 -3.3073,-0.70435 -3.35554,-0.14478 -5.48013,-0.60039 -7.36699,-1.58026 -1.51908,-0.78887 -4.06124,-2.86673 -4.62607,-3.78065 -0.80554,-1.30339 -1.20676,-1.13545 -0.47284,0.19792 0.87027,1.58106 3.56522,4.2565 5.04258,5.00589 l 1.25574,0.63717 -1.73839,1.26039 -1.7384,1.26091 -2.03037,-1.67587 c -2.4794,-2.04599 -5.82127,-5.98803 -7.54734,-8.9023 -2.4652,-4.16222 -4.03177,-9.18783 -3.83439,-12.30106 0.0806,-1.27101 0.0417,-1.40139 -0.35502,-1.18855 -2.2647,1.21496 -8.172902,-2.48032 -10.044862,-6.28282 -0.46339,-0.94129 -0.842843,-1.89868 -0.842843,-2.12752 0,-0.15915 -0.01485,-0.24076 -0.06201,-0.2403 z m 56.109756,0.29042 0.85989,0.77722 c 0.47295,0.42741 0.8599,0.81439 0.8599,0.85989 0,0.20441 -0.21821,0.0243 -0.94258,-0.77721 z m -33.53904,3.30781 c -0.0962,0 -0.83418,0.53579 -1.64021,1.19063 -0.80603,0.65485 -2.12506,1.72641 -2.93109,2.38125 -0.7525,0.61136 -1.2929,1.11919 -1.26504,1.1839 1.4e-4,2.6e-4 8.8e-4,0.001 10e-4,0.002 l 5.1e-4,5.2e-4 5.2e-4,5.2e-4 5.2e-4,5.1e-4 c 0.003,0.002 0.007,0.004 0.0119,0.004 0.11836,0 1.40296,-0.96286 2.85461,-2.13992 2.97517,-2.41227 3.21286,-2.62258 2.96726,-2.62258 z m 36.80189,0.39636 0.5457,0.66146 c 0.29994,0.36381 0.54787,0.75075 0.55087,0.85989 0.0109,0.3663 -0.14121,0.20371 -0.62012,-0.66145 z m 121.7259,1.45572 c -0.0792,0.007 -0.5998,0.4808 -1.16375,1.05834 -0.53731,0.55025 -0.92924,1.006 -0.90899,1.0542 l 5.2e-4,5.1e-4 v 5.2e-4 l 5.1e-4,5.2e-4 5.2e-4,5.1e-4 5.2e-4,5.2e-4 h 5.1e-4 l 5.2e-4,5.2e-4 5.2e-4,5.1e-4 h 5.1e-4 c 9.1e-4,2.4e-4 0.002,5.2e-4 0.004,5.2e-4 0.0728,0 0.59743,-0.47625 1.16582,-1.05833 0.53731,-0.55026 0.92924,-1.00601 0.90899,-1.0542 l -5.2e-4,-5.2e-4 -5.1e-4,-5.1e-4 v -5.2e-4 l -5.2e-4,-5.2e-4 -5.2e-4,-5.1e-4 h -5.1e-4 l -5.2e-4,-5.2e-4 h -5.2e-4 l -5.2e-4,-5.2e-4 c -9e-4,-2.3e-4 -0.002,-5.2e-4 -0.004,-5.2e-4 -5.7e-4,0 -0.001,-5e-5 -0.002,0 z m -2.65927,2.38125 c -0.0728,0 -0.41167,0.29766 -0.75344,0.66146 -0.34178,0.3638 -0.56218,0.66146 -0.48938,0.66146 0.0728,0 0.41218,-0.29766 0.75396,-0.66146 0.34177,-0.3638 0.56166,-0.66146 0.48886,-0.66146 z m -104.07323,1.85984 c 0.14552,0 0.44318,0.11525 0.66146,0.25631 0.2183,0.14106 0.27781,0.25632 0.13229,0.25632 -0.14552,0 -0.44318,-0.11526 -0.66146,-0.25632 -0.21829,-0.14106 -0.27781,-0.25631 -0.13229,-0.25631 z m 101.4615,0.25528 c -0.0283,0.003 -0.13437,0.0834 -0.32452,0.23255 -0.25466,0.19972 -0.46302,0.40802 -0.46302,0.46302 0,0.21776 0.2171,0.0774 0.56275,-0.36329 0.15684,-0.19998 0.2367,-0.30675 0.23203,-0.32814 v -5.2e-4 -5.2e-4 l -5.2e-4,-5.2e-4 v -5.1e-4 h -5.1e-4 v -5.2e-4 h -5.2e-4 l -5.2e-4,-5.2e-4 -5.1e-4,-5.1e-4 h -5.2e-4 c -10e-4,-2.3e-4 -0.003,-7e-4 -0.004,-5.2e-4 z m -105.19823,0.84904 c 0.45075,-0.0181 0.86819,0.13006 1.79938,0.46768 0.91992,0.33353 3.10151,1.32077 4.84776,2.19418 1.74625,0.87341 4.90141,2.36 7.01146,3.30367 2.11005,0.94367 4.33449,1.94212 4.94337,2.21847 0.97823,0.44397 1.15352,0.66344 1.5074,1.88671 1.15022,3.97595 1.05427,8.90162 -0.25063,12.84986 -0.39276,1.18836 -0.78962,2.16059 -0.88212,2.16059 -0.0925,0 -0.62274,-0.30879 -1.17822,-0.68626 -1.57967,-1.07341 -3.24592,-1.72091 -5.43274,-2.11098 -1.10799,-0.19764 -2.13741,-0.36346 -2.28772,-0.36846 -0.18541,-0.006 -0.19388,-0.5857 -0.0258,-1.80144 0.54366,-3.93346 -1.25214,-9.58955 -3.9765,-12.52326 -1.36619,-1.47118 -4.12932,-3.41816 -4.82761,-3.40186 -0.2321,0.005 0.23316,0.33136 1.03353,0.7245 2.12655,1.04458 4.45281,3.48428 5.60741,5.88026 1.16452,2.41657 1.81598,4.97357 1.75648,6.89622 -0.0192,0.62238 -0.0373,0.93191 -0.063,0.95653 l -5.2e-4,5.2e-4 -5.2e-4,5.2e-4 -5.2e-4,5.1e-4 c -1.8e-4,6e-5 -0.001,-3e-5 -0.002,0 l -5.1e-4,5.2e-4 -5.2e-4,-5.2e-4 h -5.2e-4 -5.1e-4 l -5.2e-4,-5.1e-4 -5.2e-4,-5.2e-4 c -0.0202,-0.0179 -0.0457,-0.19215 -0.0791,-0.51108 -0.10706,-1.0235 -0.601,-1.40404 -0.601,-0.46302 0,0.29105 -0.11906,0.52916 -0.26458,0.52916 -0.14555,0 -0.25026,0.0893 -0.23306,0.19844 0.0858,0.54364 -0.0918,0.73111 -0.72761,0.76791 -0.81508,0.0472 -1.14586,0.473 -1.15186,1.48105 -0.004,0.706 0.039,0.7276 1.45107,0.7276 0.80036,0 1.45521,0.11907 1.45521,0.26459 0,0.14866 -0.73755,0.26458 -1.6831,0.26458 h -1.68259 l 0.12971,-2.48047 c 0.20268,-3.87483 -0.7671,-7.00332 -2.88096,-9.29659 -1.97113,-2.13843 -3.85113,-2.6695 -6.51692,-1.8402 -0.87379,0.27183 -0.74561,-0.23247 0.38913,-1.5291 0.39418,-0.45041 0.58654,-0.68933 0.58084,-0.72502 l -5.2e-4,-5.2e-4 v -5.1e-4 -5.2e-4 l -5.1e-4,-5.2e-4 -5.2e-4,-5.2e-4 -5.2e-4,-5.1e-4 -5.1e-4,-5.2e-4 h -5.2e-4 l -5.2e-4,-5.2e-4 h -5.1e-4 c -0.024,-0.004 -0.13959,0.0856 -0.34365,0.2651 -0.41351,0.3638 -1.02309,1.08682 -1.35496,1.60662 -0.55084,0.86279 -0.76864,0.97441 -2.49907,1.28365 -1.04253,0.18636 -1.94883,0.28556 -2.01383,0.22066 -0.065,-0.065 0.049,-0.59171 0.25321,-1.17048 1.3038,-3.69536 4.23385,-7.08435 6.83215,-7.90339 0.64779,-0.2042 1.01832,-0.31874 1.3689,-0.3328 z m 100.23316,2.34715 c -0.10282,-0.003 -0.25658,0.0768 -0.39119,0.21239 -0.25936,0.26131 -0.22877,0.29138 0.14831,0.14779 0.26092,-0.0994 0.40758,-0.24716 0.32608,-0.32866 -0.0204,-0.0204 -0.0489,-0.0305 -0.0832,-0.0315 z m -3.6158,1.91306 c -0.15705,-0.002 -0.7897,0.23853 -1.49913,0.57516 v -5.2e-4 c -0.69975,0.33217 -1.0331,0.51427 -1.02009,0.54571 1.6e-4,2.4e-4 8.2e-4,0.001 10e-4,0.002 0.0365,0.0279 0.55616,-0.15353 1.52497,-0.54519 0.6245,-0.25246 1.0863,-0.50792 1.0263,-0.56792 -0.006,-0.006 -0.0168,-0.009 -0.0331,-0.009 z m -3.22254,1.25264 c -0.16519,-0.006 -0.70097,0.16361 -1.19062,0.3762 -0.48965,0.21258 -0.75534,0.39088 -0.59015,0.39688 0.16519,0.006 0.70098,-0.16362 1.19063,-0.37621 0.48965,-0.21258 0.75534,-0.39087 0.59014,-0.39687 z m -2.35489,0.85679 c -0.0579,-0.002 -0.18645,0.0248 -0.38758,0.0786 -0.3638,0.0973 -0.84005,0.28681 -1.05833,0.42168 -0.27583,0.17044 -0.19513,0.19169 0.26458,0.0687 0.3638,-0.0973 0.84006,-0.28734 1.05834,-0.4222 0.15515,-0.0959 0.19745,-0.14453 0.12299,-0.14676 z m -2.12649,0.80925 c -0.13514,-0.0412 -1.49562,0.2711 -3.02359,0.6935 -1.37875,0.38115 -2.39411,0.70662 -2.42776,0.77412 -1.1e-4,2.8e-4 -4.4e-4,10e-4 -5.1e-4,0.002 -4e-5,2.6e-4 -5.2e-4,10e-4 -5.2e-4,0.002 4e-5,2.4e-4 4.4e-4,0.001 5.2e-4,0.002 v 5.1e-4 c 1.5e-4,2.2e-4 8.4e-4,10e-4 0.001,0.002 0.003,0.003 0.0117,0.005 0.0238,0.006 0.53206,0.0265 5.72433,-1.38952 5.42706,-1.48002 z m -58.07914,1.79524 c 0.0919,0.004 0.17102,0.0284 0.21497,0.0724 0.0879,0.0879 -0.0683,0.15051 -0.34726,0.13901 -0.30823,-0.0127 -0.37074,-0.0757 -0.15968,-0.1602 0.0955,-0.0382 0.20005,-0.0549 0.29197,-0.0512 z m 1.05833,0.26459 c 0.0919,0.004 0.17103,0.0284 0.21498,0.0723 0.0879,0.088 -0.0684,0.15051 -0.34727,0.13901 -0.30822,-0.0127 -0.37075,-0.0757 -0.15968,-0.16019 0.0955,-0.0382 0.20005,-0.055 0.29197,-0.0512 z m 1.05833,0.26458 c 0.0919,0.004 0.17103,0.0284 0.21498,0.0723 0.0879,0.0879 -0.0683,0.15051 -0.34727,0.13901 -0.30822,-0.0127 -0.37075,-0.0757 -0.15968,-0.1602 0.0955,-0.0382 0.20006,-0.0549 0.29197,-0.0512 z m -37.30625,1.58802 c -0.0919,-0.004 -0.19647,0.013 -0.29197,0.0512 -0.21106,0.0845 -0.14854,0.14749 0.15968,0.16019 0.27887,0.0115 0.43517,-0.0511 0.34727,-0.13901 -0.044,-0.0439 -0.12306,-0.0685 -0.21498,-0.0723 z m 49.47709,0.26406 c 0.0919,0.004 0.17102,0.0284 0.21497,0.0723 0.0879,0.0879 -0.0684,0.15051 -0.34726,0.13901 -0.30823,-0.0127 -0.37074,-0.0757 -0.15968,-0.1602 0.0955,-0.0382 0.20005,-0.0549 0.29197,-0.0512 z m -50.64549,0.0129 c -0.29104,-0.004 -0.76729,0.0946 -1.05833,0.21963 -0.67422,0.28972 0.0214,0.28972 0.92604,0 0.53174,-0.17032 0.55768,-0.21363 0.13229,-0.21963 z m -24.70237,0.0853 c -1.447,-0.008 -2.82629,1.03885 -3.11919,2.84375 -0.22968,1.41541 1.05404,3.38524 2.42156,3.71606 0.93613,0.22647 1.22693,0.19684 2.08825,-0.21188 1.79928,-0.85382 2.36724,-3.5848 1.06711,-5.12992 -0.69715,-0.82852 -1.58952,-1.21314 -2.45773,-1.21801 z m 78.54508,0.16588 c 0.16784,0 0.33569,0.0168 0.46302,0.0501 0.25466,0.0665 0.0463,0.12092 -0.46302,0.12092 -0.50932,0 -0.71769,-0.0544 -0.46302,-0.12092 0.12733,-0.0333 0.29517,-0.0501 0.46302,-0.0501 z m 47.78881,0.24805 c 1.05061,0.0142 2.15928,0.1562 2.97967,0.42116 1.87658,0.60606 4.25794,2.80698 5.30562,4.90358 1.89409,3.79039 0.39591,8.07446 -3.30833,9.4604 -0.88493,0.33109 -2.04951,0.53842 -2.96778,0.52762 -6.05591,-0.0709 -9.89297,-5.20492 -8.08167,-10.8133 0.51589,-1.59734 2.2068,-3.63852 3.44113,-4.15426 0.58842,-0.24585 1.58076,-0.35945 2.63136,-0.3452 z m -103.63812,0.0176 c -0.0919,-0.004 -0.19647,0.013 -0.29197,0.0512 -0.21106,0.0845 -0.14854,0.14749 0.15968,0.16019 0.27887,0.0115 0.43517,-0.0511 0.34727,-0.13901 -0.044,-0.0439 -0.12306,-0.0686 -0.21498,-0.0723 z m -22.46736,0.49661 c 0.61039,0 0.81983,0.14298 0.9462,0.64647 0.0891,0.35553 0.093,0.75778 0.009,0.894 -0.26412,0.42735 -1.17603,0.53445 -1.64331,0.19276 -0.32134,-0.23499 -0.39827,-0.52661 -0.27182,-1.03043 0.1412,-0.5626 0.33266,-0.7028 0.96015,-0.7028 z m 20.61528,0.0326 c -0.0919,-0.004 -0.19647,0.013 -0.29197,0.0512 -0.21107,0.0845 -0.14854,0.1475 0.15968,0.1602 0.27887,0.0115 0.43517,-0.0511 0.34727,-0.13901 -0.044,-0.0439 -0.12306,-0.0686 -0.21498,-0.0723 z m -1.05833,0.26459 c -0.0919,-0.004 -0.19648,0.013 -0.29197,0.0512 -0.21107,0.0845 -0.14855,0.14749 0.15968,0.16019 0.27886,0.0115 0.43516,-0.0511 0.34726,-0.13901 -0.044,-0.0439 -0.12306,-0.0686 -0.21497,-0.0723 z m -9.38858,1.079 c -0.27771,-0.0108 -1.7017,0.70567 -1.7017,0.8754 0,0.0667 0.41492,-0.0768 0.92242,-0.31884 0.50749,-0.24201 0.87596,-0.48676 0.81856,-0.54416 -0.008,-0.008 -0.0208,-0.0117 -0.0393,-0.0124 z m 5.30976,0.21963 c -0.14552,0 -0.44318,0.11525 -0.66146,0.25631 -0.21829,0.14106 -0.27781,0.25632 -0.13229,0.25632 0.14552,0 0.44317,-0.11526 0.66146,-0.25632 0.21829,-0.14106 0.27781,-0.25631 0.13229,-0.25631 z m 111.48828,0.28628 c -0.23978,-7e-4 -0.4893,0.014 -0.69039,0.0444 -0.12097,0.0183 -0.18142,0.0362 -0.18707,0.0517 l -5.2e-4,5.2e-4 v 5.2e-4 5.1e-4 5.2e-4 5.2e-4 c 4e-5,1.9e-4 -6e-5,10e-4 0,0.002 l 5.2e-4,5.1e-4 c 0.0156,0.0332 0.29558,0.0566 0.77876,0.0579 0.52839,10e-4 0.84649,-0.0242 0.85628,-0.0625 3e-5,-2e-4 5e-4,-0.001 5.2e-4,-0.002 v -5.2e-4 -5.1e-4 -5.2e-4 c -0.004,-0.0135 -0.0442,-0.0293 -0.12558,-0.045 -0.16271,-0.0316 -0.39274,-0.0474 -0.63252,-0.0481 z m -112.8112,0.24288 c -0.14552,0 -0.44318,0.11525 -0.66146,0.25632 -0.21829,0.14106 -0.27781,0.25631 -0.13229,0.25631 0.14552,0 0.44318,-0.11525 0.66146,-0.25631 0.21829,-0.14107 0.27781,-0.25632 0.13229,-0.25632 z m 110.44132,0.0238 c -0.0919,-0.004 -0.19648,0.013 -0.29197,0.0512 -0.21107,0.0845 -0.14855,0.1475 0.15968,0.1602 0.27896,0.0115 0.43517,-0.0511 0.34727,-0.13901 -0.044,-0.0439 -0.12306,-0.0686 -0.21498,-0.0723 z m 4.7625,0 c -0.0919,-0.004 -0.19648,0.013 -0.29197,0.0512 -0.21107,0.0845 -0.14855,0.1475 0.15968,0.1602 0.27886,0.0115 0.43517,-0.0511 0.34727,-0.13901 -0.044,-0.0439 -0.12306,-0.0686 -0.21498,-0.0723 z m -38.87153,3.45767 0.50178,0.70487 c 0.68027,0.95535 1.02791,2.3594 1.35599,5.47874 0.43567,4.14234 -0.42529,7.9178 -2.69544,11.82356 -0.57093,0.98227 -1.18155,1.77764 -1.35703,1.76734 -0.37748,-0.022 -3.868,-1.45782 -4.09432,-1.68414 -0.0859,-0.0859 0.10182,-0.89907 0.41755,-1.80661 1.30427,-3.74905 2.16731,-9.14767 2.16731,-13.55937 0,-1.73441 0.0491,-1.91867 0.47955,-1.8061 0.26366,0.069 1.09707,-0.10947 1.85209,-0.39635 z m -53.02674,0.016 c -0.0433,0.005 -0.1332,0.0704 -0.2806,0.19276 -0.22162,0.18393 -0.40307,0.3797 -0.40307,0.4346 0,0.29642 0.49691,0.0365 0.63923,-0.33435 0.0784,-0.20426 0.10012,-0.29914 0.0444,-0.29301 z m -17.35242,1.02113 c -0.35967,0 -0.71934,0.0143 -0.99219,0.0429 -0.14496,0.0152 -0.22006,0.0299 -0.23151,0.0429 l -5.2e-4,5.2e-4 v 5.2e-4 l -5.2e-4,5.1e-4 v 5.2e-4 l -5.1e-4,5.2e-4 v 5.1e-4 5.2e-4 5.2e-4 c 7e-5,1.8e-4 4.1e-4,10e-4 5.1e-4,0.002 l 5.2e-4,5.1e-4 c 0.0279,0.0324 0.47387,0.0548 1.22422,0.0548 0.75032,0 1.19585,-0.0219 1.22369,-0.0543 l 5.2e-4,-5.2e-4 c 10e-5,-1.8e-4 4.4e-4,-10e-4 5.2e-4,-0.002 v -5.1e-4 -5.2e-4 l 5.1e-4,-5.2e-4 -5.1e-4,-5.1e-4 v -5.2e-4 -5.2e-4 l -5.2e-4,-5.1e-4 -5.2e-4,-5.2e-4 c -0.0114,-0.013 -0.0865,-0.0282 -0.23151,-0.0434 -0.27285,-0.0285 -0.63252,-0.0429 -0.99218,-0.0429 z m -2.91042,0.26975 c -0.11989,0 -0.23978,0.0186 -0.33073,0.0553 -0.1819,0.0734 -0.0331,0.13332 0.33073,0.13332 0.36383,0 0.51263,-0.0599 0.33073,-0.13332 -0.0909,-0.0367 -0.21084,-0.0553 -0.33073,-0.0553 z m 6.05338,0 c -0.14387,-0.002 -0.2971,0.0135 -0.42582,0.047 v 5.1e-4 c -0.25743,0.0671 -0.111,0.12678 0.32556,0.13178 0.43656,0.005 0.64732,-0.0495 0.46819,-0.12196 -0.0896,-0.0364 -0.22407,-0.0556 -0.36793,-0.0574 z m 16.28634,0.0863 c 0.0182,-10e-4 0.0387,0.0235 0.0605,0.0775 0.0734,0.1819 0.0734,0.47955 0,0.66145 -0.0734,0.1819 -0.13332,0.0331 -0.13332,-0.33073 0,-0.25581 0.0297,-0.40524 0.0729,-0.40824 z m -23.68486,0.17673 c -0.0919,-0.004 -0.19647,0.013 -0.29197,0.0512 -0.21107,0.0845 -0.14854,0.14698 0.15968,0.15968 0.27887,0.0115 0.43517,-0.0506 0.34727,-0.13849 -0.044,-0.0439 -0.12306,-0.0686 -0.21498,-0.0723 z m -18.79213,1.26866 c -0.0859,0.006 -0.35308,0.41981 -0.66715,1.05007 -0.38287,0.76831 -1.29624,1.99696 -2.02933,2.73006 l -1.33273,1.33274 1.08055,-0.10336 c 0.59439,-0.0567 1.0246,-0.0115 0.9555,0.10026 -0.21068,0.3409 1.09947,0.22651 1.45572,-0.12713 0.26714,-0.26518 0.29792,-0.23896 0.15658,0.13229 -0.14969,0.39322 -0.0166,0.46302 0.88212,0.46302 0.69666,0 1.11053,-0.13562 1.21078,-0.39687 0.22107,-0.5761 -0.104,-1.24427 -0.52659,-1.0821 -0.1995,0.0765 -0.36276,0.0101 -0.36276,-0.1478 0,-0.16368 -0.28458,-0.23271 -0.66146,-0.16071 -0.56106,0.10725 -0.66146,0.0274 -0.66146,-0.52659 0,-0.43012 -0.11875,-0.60756 -0.34727,-0.51986 -0.21992,0.0844 -0.12303,-0.30923 0.26459,-1.07487 0.33637,-0.66441 0.61185,-1.3896 0.61185,-1.61179 0,-0.0399 -0.0101,-0.0586 -0.0289,-0.0574 z m 20.13727,0.0537 c -0.16785,0 -0.33569,0.0169 -0.46302,0.0501 -0.25466,0.0665 -0.0463,0.12092 0.46302,0.12092 0.50932,0 0.71768,-0.0543 0.46302,-0.12092 -0.12733,-0.0333 -0.29518,-0.0501 -0.46302,-0.0501 z m 2.64583,0.26665 c -0.11989,0 -0.23978,0.0186 -0.33073,0.0553 -0.1819,0.0734 -0.0331,0.13332 0.33073,0.13332 0.36383,0 0.51263,-0.0599 0.33073,-0.13332 -0.0909,-0.0367 -0.21084,-0.0553 -0.33073,-0.0553 z m 1.56528,0.26304 c -0.0919,-0.004 -0.19647,0.013 -0.29197,0.0512 -0.21107,0.0845 -0.14854,0.14698 0.15968,0.15968 0.27887,0.0115 0.43517,-0.0506 0.34727,-0.1385 -0.044,-0.0439 -0.12306,-0.0686 -0.21498,-0.0723 z m 1.87431,0.52865 c -0.21828,0.005 0.0198,0.16869 0.52916,0.36483 v 5.2e-4 c 1.20801,0.46475 1.6833,0.45755 0.66146,-0.0103 -0.43656,-0.1999 -0.97233,-0.36001 -1.19062,-0.35501 z m 67.18194,0 c -0.0919,-0.004 -0.19648,0.013 -0.29197,0.0512 -0.21107,0.0845 -0.14854,0.14749 0.15968,0.16019 0.27887,0.0115 0.43517,-0.0511 0.34727,-0.13901 -0.044,-0.044 -0.12306,-0.0686 -0.21498,-0.0723 z m -0.93999,0.24856 c -0.40488,-0.0284 -1.45242,0.0925 -1.9482,0.26097 -0.14986,0.0509 -0.22534,0.0875 -0.22531,0.10955 2e-5,2.5e-4 4.7e-4,0.001 5.1e-4,0.002 0.0102,0.0409 0.30427,0.0285 0.88625,-0.0388 0.72761,-0.084 1.37239,-0.19756 1.43299,-0.25166 0.0521,-0.0465 -0.0113,-0.0722 -0.14624,-0.0816 z m -63.52274,0.79065 c -0.004,2.2e-4 -0.006,5.5e-4 -0.008,0.002 l -5.2e-4,5.2e-4 -5.1e-4,5.1e-4 -5.2e-4,5.2e-4 -5.2e-4,5.2e-4 -5.1e-4,5.1e-4 -5.2e-4,5.2e-4 v 5.2e-4 c -6e-5,2.2e-4 -4.8e-4,0.001 -5.2e-4,0.002 v 5.2e-4 c 0.002,0.0604 0.65032,0.44744 1.52601,0.90588 1.91408,1.00211 1.85208,0.9752 1.85208,0.79737 0,-0.16048 -3.08495,-1.72799 -3.3662,-1.71049 z m 3.807,1.95647 c -0.0804,0.004 -0.10031,0.0566 -0.0424,0.15038 0.0889,0.14385 0.27389,0.26148 0.41083,0.26148 0.38058,0 0.29662,-0.18997 -0.16175,-0.36587 -0.0883,-0.0339 -0.15844,-0.0485 -0.20671,-0.046 z m 4.26589,0.21549 c -0.2574,0.0146 -0.38885,0.0284 -0.40566,0.0408 l -5.2e-4,5.1e-4 -5.1e-4,5.2e-4 -5.2e-4,5.2e-4 v 5.1e-4 5.2e-4 5.2e-4 5.1e-4 l 5.2e-4,5.2e-4 c 1.6e-4,1.7e-4 8.3e-4,8.7e-4 0.001,0.001 l 5.2e-4,5.2e-4 c 0.0502,0.0284 0.7429,0.0482 1.91616,0.0486 1.2278,3.5e-4 1.96228,-0.0206 2.00143,-0.0512 h 5.2e-4 l 5.1e-4,-5.2e-4 5.2e-4,-5.2e-4 v -5.1e-4 l 5.2e-4,-5.2e-4 c -5e-5,-1.7e-4 -4.4e-4,-10e-4 -5.2e-4,-0.002 l -5.2e-4,-5.2e-4 c -0.0115,-0.0117 -0.12098,-0.0251 -0.33848,-0.0388 -0.83104,-0.0524 -2.25979,-0.0528 -3.175,-10e-4 z m 5.34748,0.23048 c -0.11989,0 -0.23978,0.0186 -0.33073,0.0553 -0.1819,0.0734 -0.0331,0.13333 0.33073,0.13333 0.36383,0 0.51263,-0.0599 0.33073,-0.13333 -0.091,-0.0367 -0.21084,-0.0553 -0.33073,-0.0553 z m 1.30069,0.26303 c -0.0919,-0.004 -0.19647,0.013 -0.29197,0.0512 -0.21106,0.0845 -0.14854,0.14698 0.15968,0.15968 0.27897,0.0115 0.43517,-0.0506 0.34727,-0.13849 -0.044,-0.0439 -0.12306,-0.0686 -0.21498,-0.0723 z m 1.42162,0.5085 c -0.11494,0.007 0.32702,0.29892 0.98186,0.64957 1.33392,0.71426 1.32291,0.70962 1.32291,0.53433 0,-0.16043 -2.0238,-1.2 -2.30477,-1.1839 z m 2.69596,1.44332 c -0.002,2.1e-4 -0.004,9.2e-4 -0.005,0.002 h -5.2e-4 l -5.2e-4,5.2e-4 -5.2e-4,5.1e-4 -5.1e-4,5.2e-4 -5.2e-4,5.2e-4 c -8e-5,1.9e-4 -4.6e-4,10e-4 -5.2e-4,0.002 v 5.1e-4 5.2e-4 c -3.3e-4,0.0318 0.17252,0.17336 0.52917,0.44907 1.60592,1.24146 3.0479,2.65937 4.12585,4.0566 1.21411,1.5737 1.70863,1.95793 0.74827,0.58136 -0.88082,-1.26256 -4.22585,-4.56405 -4.99246,-4.92735 -0.23306,-0.11045 -0.36881,-0.16952 -0.40256,-0.16588 z m 6.06888,6.21771 c -0.0673,0.007 0.001,0.24267 0.15452,0.52916 0.15577,0.29105 0.34267,0.52917 0.41547,0.52917 0.0728,0 0.005,-0.23812 -0.15089,-0.52917 -0.15576,-0.29104 -0.34268,-0.52916 -0.41548,-0.52916 -10e-4,0 -0.003,-1.2e-4 -0.004,0 z m 0.93276,1.47639 c -2.6e-4,9e-5 -7.8e-4,4e-4 -0.001,5.2e-4 -2.4e-4,1.5e-4 -0.001,8.6e-4 -0.002,10e-4 l -5.2e-4,5.2e-4 c -0.0476,0.0537 0.20706,0.8602 0.61392,1.92598 0.43679,1.14422 0.83765,2.04613 0.91054,2.05311 2.8e-4,0 0.001,3e-5 0.002,0 2.6e-4,-6e-5 10e-4,9e-5 0.002,0 2.4e-4,-1.2e-4 0.001,-8.9e-4 0.002,-10e-4 l 5.1e-4,-5.1e-4 5.2e-4,-5.2e-4 c 0.13091,-0.13091 -1.21341,-3.67579 -1.5043,-3.96668 -0.008,-0.008 -0.0156,-0.0125 -0.0207,-0.0124 -2.9e-4,4e-5 -0.001,-6e-5 -0.002,0 z m -86.438649,3.32228 c -1.442598,0.006 -3.162738,0.49758 -3.672644,1.10071 -0.24348,0.28802 -0.365293,0.43211 -0.360701,0.45062 v 5.1e-4 l 5.16e-4,5.2e-4 5.17e-4,5.2e-4 5.17e-4,5.2e-4 h 5.17e-4 c 0.02079,8.2e-4 0.151773,-0.10587 0.394808,-0.30645 0.69023,-0.56965 2.31428,-1.00393 3.96875,-1.06143 0.640569,-0.0222 0.958803,-0.0352 0.984952,-0.0563 l 5.17e-4,-5.1e-4 5.17e-4,-5.2e-4 5.17e-4,-5.2e-4 v -5.1e-4 l 5.16e-4,-5.2e-4 v -5.2e-4 -5.1e-4 l -5.16e-4,-5.2e-4 v -5.2e-4 l -5.17e-4,-5.1e-4 -5.17e-4,-5.2e-4 c -0.02417,-0.02 -0.271499,-0.0483 -0.720886,-0.0956 -0.190419,-0.02 -0.390777,-0.0288 -0.596863,-0.0279 z m 2.316655,0.28577 c -0.264583,0.002 -0.40878,0.008 -0.424264,0.0289 l -5.17e-4,5.2e-4 v 5.1e-4 l -5.17e-4,5.2e-4 v 5.2e-4 5.1e-4 c -1.6e-5,2.1e-4 -5.19e-4,10e-4 -5.16e-4,0.002 v 5.1e-4 l 5.16e-4,5.2e-4 c 0.0083,0.028 0.189959,0.0796 0.557589,0.17311 0.43656,0.11111 1.031877,0.20371 1.322917,0.20671 0.41466,0.004 0.386028,-0.0407 -0.132292,-0.20671 -0.363801,-0.1165 -0.959116,-0.21022 -1.322916,-0.20722 z m 3.175004,0.75913 c -0.26169,0.01 -0.21663,0.0919 0.13229,0.24184 0.72736,0.31256 1.14511,0.31256 0.66146,0 -0.21828,-0.14106 -0.57547,-0.24984 -0.79375,-0.24184 z m 1.4552,0.51418 c -0.14552,0 -0.086,0.11577 0.1323,0.25683 0.21828,0.14107 0.51593,0.25632 0.66145,0.25632 0.14553,0 0.086,-0.11525 -0.13229,-0.25632 -0.21828,-0.14106 -0.51593,-0.25683 -0.66146,-0.25683 z m -11.164173,0.82165 c -2.49e-4,8e-5 -7.91e-4,4.2e-4 -10e-4,5.2e-4 h -5.17e-4 c -2.27e-4,1.6e-4 -0.0013,8.5e-4 -0.0015,0.001 -0.02159,0.0215 -0.0044,0.18326 0.04341,0.47335 0.08225,0.49924 0.58964,1.6601 1.12758,2.57969 0.5584,0.95456 1.153002,1.66296 1.385962,1.65106 0.29151,-0.0149 0.309938,-0.0601 0.06408,-0.15865 -0.48306,-0.19359 -1.627273,-2.07099 -2.224153,-3.64939 -0.230133,-0.60853 -0.351916,-0.89694 -0.391708,-0.89762 -2.64e-4,3e-5 -0.0013,-4e-5 -0.0016,0 z m 9.165333,3.68815 c -1.078323,-0.026 -3.48028,0.0886 -4.086573,0.23616 -0.07333,0.0178 -0.111016,0.0336 -0.115755,0.047 -2.24e-4,9.3e-4 -6.1e-4,0.003 -5.17e-4,0.004 1.98e-4,8.9e-4 0.001,0.003 0.0015,0.004 0.04194,0.059 0.807185,0.067 1.966806,0.0109 1.455211,-0.0704 2.695299,-0.1718 2.755899,-0.2248 0.0502,-0.0439 -0.16197,-0.0678 -0.52141,-0.0765 z m -5.299419,0.54209 c -0.09192,-0.004 -0.196472,0.013 -0.291972,0.0512 -0.21107,0.0845 -0.148539,0.14698 0.159681,0.15968 0.27887,0.0115 0.435165,-0.0511 0.347265,-0.13901 -0.04396,-0.0439 -0.123059,-0.068 -0.214974,-0.0718 z m 44.592109,3.50986 c -0.0704,7e-4 -0.0908,0.053 -0.0667,0.15606 0.15461,0.65869 -6.29599,3.706 -6.96702,3.29128 -0.12655,-0.0782 -0.22996,-0.39299 -0.22996,-0.6997 0,-0.3067 -0.075,-0.48311 -0.1664,-0.39171 -0.26335,0.26336 0.3891,2.51468 1.38648,4.78524 1.0961,2.49532 2.61887,4.88746 4.81676,7.56543 1.15516,1.40747 1.52519,2.03214 1.28365,2.16731 -0.88955,0.49782 -6.22441,1.33754 -9.30486,1.46451 -5.42823,0.22373 -6.99304,-0.132 -18.78542,-4.27158 -6.08943,-2.13762 -8.8376,-2.63898 -12.413195,-2.26291 -3.911641,0.41141 -6.714398,1.32646 -13.383679,4.36821 -5.66454,2.58351 -11.055332,4.50108 -14.421342,5.12992 -1.51169,0.28241 -2.899222,-0.13536 -3.128492,-0.94206 -0.34162,-1.20199 -0.423038,-2.72174 -0.220658,-4.12533 0.1206,-0.83675 0.19098,-1.52136 0.15658,-1.52136 -0.38008,0 -3.541757,3.77567 -4.477247,5.34645 -2.41861,4.06105 -1.718943,7.22475 1.832447,8.28631 3.12009,0.93265 5.677887,0.42693 18.274337,-3.61425 7.915161,-2.53933 12.080988,-3.6487 14.476118,-3.85506 1.687241,-0.14537 1.888821,-0.0984 4.016291,0.93638 9.68641,4.7114 18.39886,7.57771 25.8253,8.49612 2.86536,0.35435 11.8051,0.13058 15.08125,-0.37724 8.99037,-1.39357 18.72035,-4.75206 24.03367,-8.29561 0.26624,-0.17756 -0.0276,-0.5837 -1.19062,-1.64641 -3.27736,-2.99467 -6.91337,-6.82574 -8.52351,-8.98085 -1.53334,-2.0523 -1.82969,-2.3105 -3.39049,-2.95486 -2.88619,-1.19153 -5.11074,-3.066 -6.09989,-5.14026 -0.41425,-0.86869 -0.50389,-0.918 -1.40146,-0.76636 -1.08131,0.18269 -4.28898,-0.47681 -5.21054,-1.07125 -0.32922,-0.21235 -0.90185,-0.58196 -1.27279,-0.82165 -0.26503,-0.17126 -0.43808,-0.25567 -0.52865,-0.25477 z m -49.729263,0.43408 c -0.14552,0 -0.443178,0.11577 -0.661458,0.25683 -0.21829,0.14107 -0.277812,0.25632 -0.132292,0.25632 0.14552,0 0.443179,-0.11525 0.661459,-0.25632 0.21829,-0.14106 0.277811,-0.25683 0.132291,-0.25683 z m -1.322916,0.54364 c -0.14552,0 -0.681305,0.2281 -1.190625,0.50694 -0.509331,0.27885 -0.806979,0.50695 -0.661459,0.50695 0.14552,0 0.681305,-0.2281 1.190625,-0.50695 0.50933,-0.27884 0.806979,-0.50694 0.661459,-0.50694 z m 96.947569,2.39158 c -0.0919,-0.004 -0.19648,0.013 -0.29197,0.0512 -0.21107,0.0845 -0.14854,0.14698 0.15968,0.15968 0.27897,0.0115 0.43517,-0.0511 0.34727,-0.13901 -0.044,-0.0439 -0.12306,-0.068 -0.21498,-0.0718 z m 1.05833,0.26459 c -0.0919,-0.004 -0.19647,0.013 -0.29197,0.0512 -0.21107,0.0845 -0.14854,0.14698 0.15968,0.15968 0.27887,0.0115 0.43517,-0.0511 0.34727,-0.13901 -0.044,-0.0439 -0.12306,-0.068 -0.21498,-0.0718 z m 1.05834,0.26458 c -0.0919,-0.004 -0.19647,0.013 -0.29197,0.0512 -0.21106,0.0845 -0.14855,0.14698 0.15968,0.15968 0.27886,0.0115 0.43516,-0.0506 0.34726,-0.13849 -0.044,-0.0439 -0.12306,-0.0686 -0.21497,-0.0724 z m -56.36607,5.2e-4 c -0.14387,-0.002 -0.2971,0.014 -0.42581,0.0475 v 5.2e-4 c -0.25743,0.0671 -0.11101,0.12677 0.32556,0.13177 0.43655,0.005 0.64733,-0.0495 0.46819,-0.12195 -0.0896,-0.0363 -0.22407,-0.0561 -0.36794,-0.0579 z m -49.222319,0.31574 c -0.08061,-0.004 -0.269021,0.063 -0.487309,0.17983 -0.29104,0.15576 -0.529166,0.34268 -0.529166,0.41548 0,0.0728 0.238126,0.005 0.529166,-0.15089 0.29105,-0.15576 0.529167,-0.34268 0.529167,-0.41548 0,-0.0182 -0.01499,-0.0275 -0.04186,-0.0289 z m -1.942517,1.20923 -0.529167,0.25941 c -0.29104,0.14289 -0.767293,0.45394 -1.058333,0.69092 l -0.529167,0.43098 0.529167,-0.25993 c 0.29104,-0.14288 0.767293,-0.45395 1.058333,-0.69092 z m -2.27428,1.43299 c -0.08846,0.006 -0.400081,0.18574 -0.768428,0.44803 -0.43657,0.31086 -0.79375,0.62483 -0.79375,0.69763 0,0.0728 0.35718,-0.12219 0.79375,-0.43305 0.43656,-0.31086 0.79375,-0.62483 0.79375,-0.69763 0,-0.0114 -0.0089,-0.0161 -0.02532,-0.015 z m -1.880505,1.24178 c -0.0778,0.007 -0.34845,0.24268 -0.607715,0.52917 -0.2634,0.29105 -0.419549,0.52916 -0.346749,0.52916 0.07276,0 0.347942,-0.23811 0.611332,-0.52916 0.2634,-0.29104 0.419549,-0.52917 0.346749,-0.52917 -0.0011,0 -0.0024,-1.1e-4 -0.0036,0 z m -1.322917,1.05833 c -0.07779,0.007 -0.34844,0.24268 -0.607715,0.52917 -0.2634,0.29104 -0.419549,0.52917 -0.346749,0.52917 0.07276,0 0.347943,-0.23813 0.611333,-0.52917 0.2634,-0.29104 0.419548,-0.52917 0.346748,-0.52917 -0.0011,0 -0.0024,-1.1e-4 -0.0036,0 z m -1.313098,1.05834 c -0.07976,0.009 -0.413395,0.30334 -0.749825,0.66146 -0.34177,0.36381 -0.562176,0.66145 -0.489376,0.66145 0.07276,0 0.412189,-0.29764 0.753959,-0.66145 0.34178,-0.3638 0.561659,-0.66146 0.488859,-0.66146 -0.0011,0 -0.0024,-1.5e-4 -0.0036,0 z m -1.94045,1.71979 -0.859896,0.77721 c -0.47294,0.42741 -0.859896,0.8144 -0.859896,0.8599 0,0.2044 0.218208,0.0243 0.942578,-0.77721 z m 133.879166,7.14375 0.50385,0.59531 c 0.27721,0.32742 0.54511,0.59531 0.59531,0.59531 0.21173,0 0.0556,-0.21311 -0.50385,-0.68678 z m -28.70367,10.18491 c -4e-4,3e-5 -6.9e-4,4.4e-4 -10e-4,5.1e-4 h -5.1e-4 -5.2e-4 l -5.2e-4,5.2e-4 h -5.1e-4 l -5.2e-4,5.2e-4 -5.2e-4,5.1e-4 -5.1e-4,5.2e-4 v 5.2e-4 5.2e-4 c -0.005,0.0214 0.0752,0.12867 0.23202,0.32866 0.34565,0.44073 0.56276,0.58104 0.56276,0.36328 0,-0.0549 -0.20836,-0.2633 -0.46302,-0.46302 -0.19671,-0.15426 -0.30331,-0.23441 -0.32711,-0.23254 z" /></g></g></svg>
